<svg width="105" height="43" viewBox="0 0 105 43" fill="none" xmlns="http://www.w3.org/2000/svg">
<g filter="url(#filter0_d)">
<g clip-path="url(#clip0)">
<path d="M16.2786 6.56274H14.1394V7.63233H16.2786V6.56274Z" fill="black"/>
<path d="M16.2786 8.7019H14.1394V9.77149H16.2786V8.7019Z" fill="black"/>
<path d="M16.2786 10.8411H14.1394V11.9106H16.2786V10.8411Z" fill="black"/>
<path d="M23.7656 7.09766H22.696C22.6957 7.38122 22.5829 7.65308 22.3824 7.85359C22.1819 8.05411 21.91 8.1669 21.6265 8.16724V9.23682C22.1936 9.23619 22.7373 9.01061 23.1384 8.60957C23.5394 8.20854 23.765 7.6648 23.7656 7.09766Z" fill="black"/>
<path d="M26.4397 9.77149V8.70191C26.1561 8.70157 25.8843 8.58878 25.6838 8.38826C25.4833 8.18775 25.3705 7.91589 25.3701 7.63232H24.3005C24.3012 8.19947 24.5268 8.74321 24.9278 9.14424C25.3288 9.54527 25.8726 9.77086 26.4397 9.77149Z" fill="black"/>
<path d="M32.0544 33.0505C31.1516 33.2146 30.2307 33.2558 29.3168 33.1728L20.0181 32.3274C19.8687 32.3138 19.7302 32.2431 19.6315 32.13C19.5329 32.0169 19.4816 31.8702 19.4883 31.7202C19.4951 31.5703 19.5594 31.4287 19.6679 31.325C19.7763 31.2212 19.9206 31.1633 20.0707 31.1632H27.2418C27.5965 31.1626 27.9364 31.0214 28.1871 30.7705C28.4377 30.5196 28.5786 30.1796 28.5788 29.8249V29.8124C28.5782 29.5314 28.4871 29.2581 28.3188 29.033L27.0944 27.4011C27.0168 27.2972 26.9747 27.1711 26.9745 27.0415V26.9498C26.9744 26.8312 27.0096 26.7152 27.0755 26.6166C27.1414 26.518 27.235 26.4411 27.3446 26.3957C27.4542 26.3504 27.5748 26.3385 27.6911 26.3616C27.8074 26.3848 27.9142 26.4419 27.9981 26.5257L30.3398 28.8674C30.3895 28.9171 30.4485 28.9565 30.5133 28.9833C30.5782 29.0102 30.6478 29.024 30.718 29.024H36.6007V27.9544H30.9395L28.7545 25.7693C28.6995 25.7145 28.6408 25.6635 28.5788 25.6167V13.5151C28.5788 13.3732 28.5225 13.2372 28.4222 13.1369C28.3219 13.0366 28.1859 12.9803 28.044 12.9803H27.5092V11.3759H28.3114C28.8079 11.3759 29.2839 11.1787 29.635 10.8277C29.986 10.4766 30.1832 10.0005 30.1832 9.50412C30.1832 9.00769 29.986 8.5316 29.635 8.18057C29.2839 7.82955 28.8079 7.63234 28.3114 7.63234H28.2561C28.5239 7.31152 28.6616 6.90194 28.642 6.48452C28.6224 6.06711 28.447 5.67222 28.1504 5.37786C27.8538 5.0835 27.4576 4.91108 27.04 4.89467C26.6225 4.87826 26.214 5.01905 25.8952 5.28922C25.8446 4.7595 25.5984 4.26766 25.2046 3.90973C24.8109 3.55179 24.2978 3.35346 23.7657 3.35346C23.2336 3.35346 22.7205 3.55179 22.3268 3.90973C21.933 4.26766 21.6868 4.7595 21.6362 5.28922C21.3174 5.01905 20.9089 4.87826 20.4914 4.89467C20.0738 4.91108 19.6776 5.0835 19.381 5.37786C19.0844 5.67222 18.909 6.06711 18.8894 6.48452C18.8698 6.90194 19.0075 7.31152 19.2752 7.63234H19.22C18.9424 7.63209 18.6683 7.69392 18.4178 7.8133V5.49318C18.4178 4.64216 18.0797 3.826 17.478 3.22425C16.8762 2.62249 16.06 2.28442 15.209 2.28442C14.358 2.28442 13.5419 2.62249 12.9401 3.22425C12.3383 3.826 12.0003 4.64216 12.0003 5.49318V12.9803H11.4655C11.3236 12.9803 11.1876 13.0366 11.0873 13.1369C10.987 13.2372 10.9307 13.3732 10.9307 13.5151V15.8667L8.05892 18.3282H4.51318V19.3978H8.25673C8.38438 19.3978 8.50782 19.3521 8.60474 19.269L11.7044 16.6122C12.0231 16.3392 12.4288 16.1891 12.8484 16.189C12.8922 16.189 12.935 16.202 12.9714 16.2264C13.0078 16.2507 13.0362 16.2853 13.053 16.3258C13.0697 16.3662 13.0741 16.4108 13.0656 16.4537C13.057 16.4967 13.0359 16.5361 13.0049 16.5671L11.0873 18.4848C11.0125 18.5596 10.9616 18.6549 10.9409 18.7586C10.9203 18.8624 10.9309 18.9699 10.9714 19.0676C11.0119 19.1654 11.0804 19.2489 11.1684 19.3076C11.2563 19.3664 11.3597 19.3978 11.4655 19.3978H17.0808C17.1517 19.3978 17.2197 19.4259 17.2699 19.4761C17.32 19.5262 17.3482 19.5942 17.3482 19.6652C17.3482 19.7361 17.32 19.8041 17.2699 19.8542C17.2197 19.9044 17.1517 19.9326 17.0808 19.9326H13.0699C12.928 19.9326 12.792 19.9889 12.6917 20.0892C12.5914 20.1895 12.5351 20.3255 12.5351 20.4674C12.5351 20.6092 12.5914 20.7452 12.6917 20.8455C12.792 20.9458 12.928 21.0021 13.0699 21.0021H18.6852C18.7561 21.0021 18.8241 21.0303 18.8743 21.0805C18.9244 21.1306 18.9526 21.1986 18.9526 21.2695C18.9526 21.3405 18.9244 21.4085 18.8743 21.4586C18.8241 21.5088 18.7561 21.5369 18.6852 21.5369H13.0699C12.928 21.5369 12.792 21.5933 12.6917 21.6936C12.5914 21.7939 12.5351 21.9299 12.5351 22.0717C12.5351 22.2136 12.5914 22.3496 12.6917 22.4499C12.792 22.5502 12.928 22.6065 13.0699 22.6065H17.6156C17.6865 22.6065 17.7545 22.6347 17.8047 22.6848C17.8548 22.735 17.883 22.803 17.883 22.8739C17.883 22.9448 17.8548 23.0128 17.8047 23.063C17.7545 23.1131 17.6865 23.1413 17.6156 23.1413H13.0699C12.928 23.1413 12.792 23.1977 12.6917 23.298C12.5914 23.3982 12.5351 23.5343 12.5351 23.6761C12.5351 23.8179 12.5914 23.954 12.6917 24.0543C12.792 24.1546 12.928 24.2109 13.0699 24.2109H15.7104C15.7186 24.2113 15.7264 24.2147 15.7322 24.2205C15.7381 24.2263 15.7416 24.234 15.7421 24.2422C15.7426 24.2504 15.7401 24.2585 15.735 24.265C15.7299 24.2715 15.7226 24.2758 15.7145 24.2772L12.0421 24.7363L8.4038 23.6967C8.35597 23.683 8.30647 23.6761 8.25673 23.6761H4.51318V24.7457H8.18186L10.9307 25.5311V30.6284H10.932C10.9315 30.6987 10.9449 30.7683 10.9715 30.8334C10.9981 30.8984 11.0374 30.9575 11.087 31.0072C11.1366 31.057 11.1957 31.0964 11.2606 31.1232C11.3256 31.1499 11.3952 31.1635 11.4655 31.1632H18.5247C18.4347 31.4015 18.401 31.6573 18.4262 31.9108C18.4515 32.1642 18.535 32.4084 18.6702 32.6242C18.8054 32.8401 18.9887 33.0218 19.2057 33.155C19.4228 33.2883 19.6677 33.3696 19.9213 33.3926L29.22 34.2382C29.5584 34.2691 29.8973 34.2845 30.2367 34.2844C30.9105 34.2844 31.5829 34.2238 32.2458 34.1033L36.6964 33.2941L36.505 32.2417L32.0544 33.0505ZM17.3482 10.8411C17.3484 10.6993 17.4047 10.5634 17.505 10.4631C17.6053 10.3629 17.7412 10.3065 17.883 10.3063H18.9526C19.5197 10.3069 20.0635 10.5325 20.4645 10.9336C20.8655 11.3346 21.0911 11.8783 21.0917 12.4455C21.0916 12.5873 21.0352 12.7232 20.9349 12.8235C20.8347 12.9237 20.6987 12.9801 20.5569 12.9803H19.4874C18.9202 12.9796 18.3765 12.754 17.9754 12.353C17.5744 11.952 17.3488 11.4082 17.3482 10.8411ZM19.22 8.70193H20.5569C20.6627 8.70193 20.7661 8.67057 20.8541 8.61181C20.942 8.55304 21.0106 8.46952 21.051 8.3718C21.0915 8.27407 21.1021 8.16654 21.0815 8.0628C21.0608 7.95906 21.0099 7.86376 20.9351 7.78897L20.1329 6.98678C20.0772 6.9311 20.0331 6.86499 20.0029 6.79224C19.9728 6.71949 19.9573 6.64151 19.9573 6.56276C19.9573 6.48401 19.9728 6.40603 20.0029 6.33328C20.0331 6.26053 20.0772 6.19442 20.1329 6.13874C20.1886 6.08305 20.2547 6.03888 20.3275 6.00875C20.4002 5.97861 20.4782 5.9631 20.5569 5.9631C20.6357 5.9631 20.7137 5.97861 20.7864 6.00875C20.8592 6.03888 20.9253 6.08305 20.981 6.13874L21.7832 6.94093C21.8579 7.01572 21.9532 7.06666 22.057 7.0873C22.1607 7.10793 22.2683 7.09734 22.366 7.05686C22.4637 7.01638 22.5472 6.94783 22.606 6.85989C22.6648 6.77194 22.6961 6.66854 22.6961 6.56276V5.49318C22.6961 5.2095 22.8088 4.93745 23.0094 4.73687C23.21 4.53628 23.482 4.42359 23.7657 4.42359C24.0494 4.42359 24.3214 4.53628 24.522 4.73687C24.7226 4.93745 24.8353 5.2095 24.8353 5.49318V6.56276C24.8353 6.66854 24.8666 6.77194 24.9254 6.85989C24.9842 6.94783 25.0677 7.01638 25.1654 7.05686C25.2631 7.09734 25.3707 7.10793 25.4744 7.0873C25.5782 7.06666 25.6734 7.01572 25.7482 6.94093L26.5504 6.13874C26.6061 6.08305 26.6722 6.03888 26.745 6.00875C26.8177 5.97861 26.8957 5.9631 26.9745 5.9631C27.0532 5.9631 27.1312 5.97861 27.2039 6.00875C27.2767 6.03888 27.3428 6.08305 27.3985 6.13874C27.4542 6.19442 27.4983 6.26053 27.5285 6.33328C27.5586 6.40603 27.5741 6.48401 27.5741 6.56276C27.5741 6.64151 27.5586 6.71949 27.5285 6.79224C27.4983 6.86499 27.4542 6.9311 27.3985 6.98678L26.5963 7.78897C26.5215 7.86376 26.4706 7.95906 26.4499 8.0628C26.4293 8.16654 26.4399 8.27407 26.4803 8.3718C26.5208 8.46952 26.5894 8.55304 26.6773 8.61181C26.7653 8.67057 26.8687 8.70193 26.9745 8.70193H28.3114C28.5242 8.70193 28.7282 8.78644 28.8787 8.93688C29.0291 9.08732 29.1136 9.29136 29.1136 9.50412C29.1136 9.71687 29.0291 9.92091 28.8787 10.0713C28.7282 10.2218 28.5242 10.3063 28.3114 10.3063H26.9745C26.8326 10.3063 26.6966 10.3626 26.5963 10.4629C26.496 10.5632 26.4397 10.6993 26.4397 10.8411V11.1259C25.8156 10.5655 24.9966 10.2723 24.1587 10.3095C23.3208 10.3466 22.5309 10.7111 21.9589 11.3245C21.7297 10.7119 21.3191 10.1839 20.782 9.81084C20.2448 9.43779 19.6066 9.23751 18.9526 9.23672H18.4646C18.5199 9.08052 18.6222 8.94527 18.7575 8.84952C18.8927 8.75377 19.0543 8.70222 19.22 8.70193ZM26.3719 12.9803H22.229C22.3475 12.5209 22.6152 12.1139 22.9902 11.8233C23.3652 11.5328 23.8261 11.3751 24.3005 11.3751C24.7749 11.3751 25.2358 11.5328 25.6108 11.8233C25.9858 12.1139 26.2535 12.5209 26.3719 12.9803ZM13.0699 5.49318C13.0699 4.92583 13.2952 4.38173 13.6964 3.98056C14.0976 3.57938 14.6417 3.35401 15.209 3.35401C15.7764 3.35401 16.3205 3.57938 16.7216 3.98056C17.1228 4.38173 17.3482 4.92583 17.3482 5.49318V9.3287C17.0356 9.43961 16.7651 9.64451 16.5736 9.91528C16.3821 10.1861 16.279 10.5094 16.2786 10.8411C16.278 11.6309 16.57 12.393 17.0982 12.9803H13.0699V5.49318ZM14.1394 14.0498H15.209V18.3282H14.1394V14.0498ZM12.8484 15.1194C12.5607 15.1196 12.2747 15.1636 12.0003 15.2501V14.0498H13.0699V15.1398C12.9968 15.1267 12.9227 15.1199 12.8484 15.1194ZM13.0699 18.0149V18.3282H12.7565L13.0699 18.0149ZM14.1394 25.552L15.209 25.4183V29.3372L14.1394 28.2676V25.552ZM12.0666 25.8111L13.0699 25.6857V28.2677L12.0003 29.3373V25.8153C12.0224 25.8153 12.0446 25.8139 12.0666 25.8111ZM12.7565 30.0936L13.6046 29.2455L14.4528 30.0936H12.7565ZM16.2786 25.188C16.4415 25.09 16.5762 24.9516 16.6699 24.7863C16.7636 24.621 16.813 24.4342 16.8134 24.2442C16.8134 24.233 16.8134 24.2219 16.8129 24.2108H17.6156C17.8156 24.2107 18.0131 24.1657 18.1934 24.0792C18.3738 23.9927 18.5324 23.8668 18.6577 23.7109C18.783 23.555 18.8717 23.3729 18.9173 23.1781C18.9629 22.9834 18.9643 22.7809 18.9213 22.5855C19.2501 22.5266 19.545 22.3466 19.7478 22.0811C19.9506 21.8156 20.0466 21.4838 20.017 21.151C19.9874 20.8182 19.8343 20.5086 19.5878 20.2831C19.3413 20.0576 19.0193 19.9325 18.6852 19.9326H18.391C18.4305 19.7383 18.4263 19.5377 18.3788 19.3453C18.3313 19.1528 18.2416 18.9734 18.1162 18.8198C17.9908 18.6663 17.8329 18.5425 17.6538 18.4575C17.4747 18.3725 17.279 18.3283 17.0808 18.3282H16.2786V14.0498H27.5092V25.2822C27.0783 25.2994 26.6707 25.4826 26.3717 25.7934C26.0727 26.1042 25.9055 26.5185 25.9049 26.9498V27.0415C25.9056 27.4026 26.0229 27.7539 26.2391 28.0431L27.4635 29.6749C27.4932 29.7146 27.5093 29.7628 27.5094 29.8124V29.8249C27.5095 29.896 27.4814 29.9643 27.4312 30.0146C27.3811 30.065 27.3129 30.0934 27.2418 30.0936H16.2786V25.188Z" fill="black"/>
<path d="M48.9341 14.2844V3.62036H51.9443C52.8721 3.62036 53.6924 3.82544 54.4053 4.2356C55.1182 4.64575 55.6675 5.22925 56.0532 5.98608C56.4438 6.74292 56.6416 7.61206 56.6465 8.59351V9.27466C56.6465 10.2805 56.4512 11.1619 56.0605 11.9187C55.6748 12.6755 55.1206 13.2566 54.3979 13.6619C53.6802 14.0671 52.8428 14.2747 51.8857 14.2844H48.9341ZM50.3403 4.77759V13.1345H51.8198C52.9038 13.1345 53.7461 12.7976 54.3467 12.1238C54.9521 11.45 55.2549 10.4905 55.2549 9.24536V8.6228C55.2549 7.41187 54.9692 6.47192 54.3979 5.80298C53.8315 5.12915 53.0259 4.78735 51.981 4.77759H50.3403ZM61.854 14.4309C60.7798 14.4309 59.9058 14.0793 59.2319 13.3762C58.5581 12.6682 58.2212 11.7234 58.2212 10.5417V10.2927C58.2212 9.50659 58.3701 8.80591 58.668 8.19067C58.9707 7.57056 59.3906 7.08716 59.9277 6.74048C60.4697 6.38892 61.0557 6.21313 61.6855 6.21313C62.7158 6.21313 63.5166 6.55249 64.0879 7.2312C64.6592 7.90991 64.9448 8.88159 64.9448 10.1462V10.7102H59.5762C59.5957 11.4915 59.8228 12.1238 60.2573 12.6072C60.6968 13.0857 61.2534 13.325 61.9272 13.325C62.4058 13.325 62.811 13.2273 63.1431 13.032C63.4751 12.8367 63.7656 12.5779 64.0146 12.2556L64.8423 12.9001C64.1782 13.9207 63.1821 14.4309 61.854 14.4309ZM61.6855 7.32642C61.1387 7.32642 60.6797 7.52661 60.3086 7.927C59.9375 8.32251 59.708 8.87915 59.6201 9.59692H63.5898V9.49438C63.5508 8.80591 63.3652 8.27368 63.0332 7.89771C62.7012 7.51685 62.252 7.32642 61.6855 7.32642ZM67.9917 14.2844H66.6367V3.03442H67.9917V14.2844ZM71.6392 14.2844H70.2842V6.35962H71.6392V14.2844ZM70.1743 4.25757C70.1743 4.03784 70.2402 3.85229 70.3721 3.70093C70.5088 3.54956 70.709 3.47388 70.9727 3.47388C71.2363 3.47388 71.4365 3.54956 71.5732 3.70093C71.71 3.85229 71.7783 4.03784 71.7783 4.25757C71.7783 4.47729 71.71 4.6604 71.5732 4.80688C71.4365 4.95337 71.2363 5.02661 70.9727 5.02661C70.709 5.02661 70.5088 4.95337 70.3721 4.80688C70.2402 4.6604 70.1743 4.47729 70.1743 4.25757ZM76.4292 12.446L78.3921 6.35962H79.7764L76.9346 14.2844H75.9019L73.0308 6.35962H74.415L76.4292 12.446ZM84.2661 14.4309C83.1919 14.4309 82.3179 14.0793 81.644 13.3762C80.9702 12.6682 80.6333 11.7234 80.6333 10.5417V10.2927C80.6333 9.50659 80.7822 8.80591 81.0801 8.19067C81.3828 7.57056 81.8027 7.08716 82.3398 6.74048C82.8818 6.38892 83.4678 6.21313 84.0977 6.21313C85.1279 6.21313 85.9287 6.55249 86.5 7.2312C87.0713 7.90991 87.3569 8.88159 87.3569 10.1462V10.7102H81.9883C82.0078 11.4915 82.2349 12.1238 82.6694 12.6072C83.1089 13.0857 83.6655 13.325 84.3394 13.325C84.8179 13.325 85.2231 13.2273 85.5552 13.032C85.8872 12.8367 86.1777 12.5779 86.4268 12.2556L87.2544 12.9001C86.5903 13.9207 85.5942 14.4309 84.2661 14.4309ZM84.0977 7.32642C83.5508 7.32642 83.0918 7.52661 82.7207 7.927C82.3496 8.32251 82.1201 8.87915 82.0322 9.59692H86.002V9.49438C85.9629 8.80591 85.7773 8.27368 85.4453 7.89771C85.1133 7.51685 84.6641 7.32642 84.0977 7.32642ZM92.7622 7.57544C92.5571 7.54126 92.335 7.52417 92.0957 7.52417C91.207 7.52417 90.604 7.90259 90.2866 8.65942V14.2844H88.9316V6.35962H90.25L90.272 7.27515C90.7163 6.56714 91.3462 6.21313 92.1616 6.21313C92.4253 6.21313 92.6255 6.24731 92.7622 6.31567V7.57544ZM96.7393 12.2996L98.585 6.35962H100.035L96.8491 15.5076C96.356 16.8259 95.5723 17.4851 94.498 17.4851L94.2417 17.4631L93.7363 17.3679V16.2693L94.1025 16.2986C94.5615 16.2986 94.918 16.2058 95.1719 16.0203C95.4307 15.8347 95.6431 15.4954 95.8091 15.0022L96.1094 14.1965L93.2822 6.35962H94.7617L96.7393 12.2996ZM54.8154 27.575H50.3403V32.2844H48.9341V21.6204H55.5405V22.7776H50.3403V26.425H54.8154V27.575ZM56.4927 28.2488C56.4927 27.4724 56.644 26.7742 56.9468 26.1541C57.2544 25.5339 57.6792 25.0554 58.2212 24.7185C58.7681 24.3816 59.3906 24.2131 60.0889 24.2131C61.168 24.2131 62.0396 24.5867 62.7036 25.3337C63.3726 26.0808 63.707 27.0745 63.707 28.3147V28.4099C63.707 29.1814 63.5581 29.8748 63.2603 30.49C62.9673 31.1003 62.5449 31.5764 61.9932 31.9182C61.4463 32.26 60.8164 32.4309 60.1035 32.4309C59.0293 32.4309 58.1577 32.0574 57.4888 31.3103C56.8247 30.5632 56.4927 29.5745 56.4927 28.344V28.2488ZM57.855 28.4099C57.855 29.2888 58.0576 29.9944 58.4629 30.5266C58.873 31.0588 59.4199 31.325 60.1035 31.325C60.792 31.325 61.3389 31.0564 61.7441 30.5193C62.1494 29.9773 62.3521 29.2205 62.3521 28.2488C62.3521 27.3796 62.1445 26.6765 61.7295 26.1394C61.3193 25.5974 60.7725 25.3264 60.0889 25.3264C59.4199 25.3264 58.8804 25.5925 58.4702 26.1248C58.0601 26.657 57.855 27.4187 57.855 28.4099ZM65.0474 28.2488C65.0474 27.4724 65.1987 26.7742 65.5015 26.1541C65.8091 25.5339 66.2339 25.0554 66.7759 24.7185C67.3228 24.3816 67.9453 24.2131 68.6436 24.2131C69.7227 24.2131 70.5942 24.5867 71.2583 25.3337C71.9272 26.0808 72.2617 27.0745 72.2617 28.3147V28.4099C72.2617 29.1814 72.1128 29.8748 71.8149 30.49C71.522 31.1003 71.0996 31.5764 70.5479 31.9182C70.001 32.26 69.3711 32.4309 68.6582 32.4309C67.584 32.4309 66.7124 32.0574 66.0435 31.3103C65.3794 30.5632 65.0474 29.5745 65.0474 28.344V28.2488ZM66.4097 28.4099C66.4097 29.2888 66.6123 29.9944 67.0176 30.5266C67.4277 31.0588 67.9746 31.325 68.6582 31.325C69.3467 31.325 69.8936 31.0564 70.2988 30.5193C70.7041 29.9773 70.9067 29.2205 70.9067 28.2488C70.9067 27.3796 70.6992 26.6765 70.2842 26.1394C69.874 25.5974 69.3271 25.3264 68.6436 25.3264C67.9746 25.3264 67.4351 25.5925 67.0249 26.1248C66.6147 26.657 66.4097 27.4187 66.4097 28.4099ZM73.6313 28.2561C73.6313 27.0403 73.9194 26.0637 74.4956 25.3264C75.0718 24.5842 75.8262 24.2131 76.7588 24.2131C77.6865 24.2131 78.4214 24.5305 78.9634 25.1653V21.0344H80.3184V32.2844H79.0732L79.0073 31.4348C78.4653 32.0989 77.7109 32.4309 76.7441 32.4309C75.8262 32.4309 75.0767 32.0549 74.4956 31.303C73.9194 30.551 73.6313 29.5696 73.6313 28.3586V28.2561ZM74.9863 28.4099C74.9863 29.3083 75.1719 30.0115 75.543 30.5193C75.9141 31.0271 76.4268 31.281 77.0811 31.281C77.9404 31.281 78.5679 30.8953 78.9634 30.1238V26.4836C78.5581 25.7366 77.9355 25.363 77.0957 25.363C76.4316 25.363 75.9141 25.6194 75.543 26.1321C75.1719 26.6448 74.9863 27.4041 74.9863 28.4099Z" fill="black"/>
</g>
</g>
<defs>
<filter id="filter0_d" x="0.513184" y="0.284424" width="108.183" height="44" filterUnits="userSpaceOnUse" color-interpolation-filters="sRGB">
<feFlood flood-opacity="0" result="BackgroundImageFix"/>
<feColorMatrix in="SourceAlpha" type="matrix" values="0 0 0 0 0 0 0 0 0 0 0 0 0 0 0 0 0 0 127 0"/>
<feOffset dy="4"/>
<feGaussianBlur stdDeviation="2"/>
<feColorMatrix type="matrix" values="0 0 0 0 0 0 0 0 0 0 0 0 0 0 0 0 0 0 0.25 0"/>
<feBlend mode="normal" in2="BackgroundImageFix" result="effect1_dropShadow"/>
<feBlend mode="normal" in="SourceGraphic" in2="effect1_dropShadow" result="shape"/>
</filter>
<clipPath id="clip0">
<rect x="4.51318" y="0.284424" width="100.183" height="36" fill="white"/>
</clipPath>
</defs>
</svg>
