<svg width="15" height="16" viewBox="0 0 15 16" fill="none" xmlns="http://www.w3.org/2000/svg">
<path d="M14.6515 6.26333C14.5553 5.96588 14.2915 5.75461 13.9793 5.72648L9.73947 5.3415L8.06292 1.41735C7.9393 1.12976 7.65776 0.943604 7.34495 0.943604C7.03215 0.943604 6.75061 1.12976 6.62699 1.41802L4.95043 5.3415L0.709893 5.72648C0.398319 5.75529 0.135163 5.96588 0.0384405 6.26333C-0.0582818 6.56078 0.0310434 6.88704 0.266741 7.0927L3.47158 9.90336L2.52655 14.0662C2.45739 14.3723 2.5762 14.6887 2.83016 14.8723C2.96667 14.9709 3.12638 15.0211 3.28744 15.0211C3.4263 15.0211 3.56404 14.9837 3.68766 14.9097L7.34495 12.7239L11.0009 14.9097C11.2684 15.0707 11.6057 15.056 11.8591 14.8723C12.1131 14.6881 12.2318 14.3716 12.1627 14.0662L11.2177 9.90336L14.4225 7.09326C14.6582 6.88704 14.7482 6.56134 14.6515 6.26333Z" fill="#FFC107"/>
</svg>
