<svg width="16" height="16" viewBox="0 0 16 16" fill="none" xmlns="http://www.w3.org/2000/svg">
<path d="M13.4146 11.9312C13.1198 11.2331 12.6921 10.5989 12.1552 10.0641C11.62 9.52767 10.9859 9.10001 10.288 8.80469C10.2818 8.80156 10.2755 8.8 10.2693 8.79688C11.2427 8.09375 11.8755 6.94844 11.8755 5.65625C11.8755 3.51562 10.1412 1.78125 8.00053 1.78125C5.8599 1.78125 4.12553 3.51562 4.12553 5.65625C4.12553 6.94844 4.75834 8.09375 5.73178 8.79844C5.72553 8.80156 5.71928 8.80312 5.71303 8.80625C5.01303 9.10156 4.3849 9.525 3.84584 10.0656C3.30945 10.6009 2.88178 11.235 2.58646 11.9328C2.29634 12.616 2.13987 13.3485 2.12553 14.0906C2.12511 14.1073 2.12804 14.1239 2.13413 14.1394C2.14023 14.1549 2.14937 14.1691 2.16102 14.181C2.17266 14.193 2.18659 14.2025 2.20196 14.2089C2.21733 14.2154 2.23385 14.2188 2.25053 14.2188H3.18803C3.25678 14.2188 3.31147 14.1641 3.31303 14.0969C3.34428 12.8906 3.82865 11.7609 4.6849 10.9047C5.57084 10.0188 6.7474 9.53125 8.00053 9.53125C9.25365 9.53125 10.4302 10.0188 11.3162 10.9047C12.1724 11.7609 12.6568 12.8906 12.688 14.0969C12.6896 14.1656 12.7443 14.2188 12.813 14.2188H13.7505C13.7672 14.2188 13.7837 14.2154 13.7991 14.2089C13.8145 14.2025 13.8284 14.193 13.84 14.181C13.8517 14.1691 13.8608 14.1549 13.8669 14.1394C13.873 14.1239 13.8759 14.1073 13.8755 14.0906C13.8599 13.3437 13.7052 12.6172 13.4146 11.9312V11.9312ZM8.00053 8.34375C7.28334 8.34375 6.60834 8.06406 6.10053 7.55625C5.59272 7.04844 5.31303 6.37344 5.31303 5.65625C5.31303 4.93906 5.59272 4.26406 6.10053 3.75625C6.60834 3.24844 7.28334 2.96875 8.00053 2.96875C8.71772 2.96875 9.39272 3.24844 9.90053 3.75625C10.4083 4.26406 10.688 4.93906 10.688 5.65625C10.688 6.37344 10.4083 7.04844 9.90053 7.55625C9.39272 8.06406 8.71772 8.34375 8.00053 8.34375Z" fill="white"/>
</svg>
